<?xml version="1.0" encoding="UTF-8" standalone="no"?><!DOCTYPE svg PUBLIC "-//W3C//DTD SVG 1.1//EN" "http://www.w3.org/Graphics/SVG/1.1/DTD/svg11.dtd"><svg width="100%" height="100%" viewBox="0 0 560 227" version="1.1" xmlns="http://www.w3.org/2000/svg" xmlns:xlink="http://www.w3.org/1999/xlink" xml:space="preserve" xmlns:serif="http://www.serif.com/" style="fill-rule:evenodd;clip-rule:evenodd;stroke-linejoin:round;stroke-miterlimit:1.41421;"><g><path d="M46.544,85.042c-0.488,-0.03 -0.763,-1.647 -0.824,-4.852c-0.061,-3.204 0.023,-6.927 0.252,-11.169c0.229,-4.242 0.58,-8.492 1.053,-12.749c0.473,-4.257 1.014,-7.484 1.625,-9.682c0.549,-2.197 1.327,-5.554 2.334,-10.07c1.007,-4.517 2.564,-7.248 4.669,-8.194c2.808,-0.336 5.341,0.343 7.599,2.037c2.259,1.693 4.105,3.349 5.539,4.966c1.16,0.489 2.854,2.076 5.081,4.761c2.228,2.686 4.555,5.562 6.981,8.629c2.426,3.067 4.715,5.89 6.867,8.469c2.151,2.578 3.73,3.974 4.738,4.188c1.861,0.458 3.822,0.259 5.882,-0.595c2.06,-0.854 3.151,-3.86 3.273,-9.018c0.275,-1.404 0.999,-3.471 2.174,-6.203c1.175,-2.731 2.426,-5.584 3.754,-8.56c1.327,-2.975 2.525,-5.791 3.593,-8.446c1.068,-2.655 1.633,-4.608 1.694,-5.859c0.244,-1.739 1.228,-3.792 2.953,-6.157c1.724,-2.365 2.54,-4.616 2.449,-6.752c-0.458,-1.373 -0.458,-3.044 0,-5.012c0.457,-1.969 1.159,-3.502 2.105,-4.601c1.74,-0.336 3.296,-0.183 4.67,0.458c1.373,0.641 2.243,1.831 2.609,3.57c1.282,1.282 0.931,4.128 -1.053,8.538c-1.984,4.409 -3.433,8.43 -4.349,12.062c-1.19,3.296 -2.846,7.416 -4.967,12.359c-2.12,4.944 -4.295,9.812 -6.523,14.603c-0.702,1.068 -1.266,3.098 -1.693,6.088c-0.428,2.991 -0.863,6.073 -1.305,9.247c-0.443,3.174 -0.961,6.012 -1.556,8.515c-0.596,2.502 -1.412,3.768 -2.449,3.799c-2.015,0.824 -4.906,-0.053 -8.675,-2.632c-3.769,-2.579 -7.652,-5.631 -11.65,-9.155c-3.998,-3.525 -7.721,-6.913 -11.17,-10.163c-3.448,-3.25 -5.844,-5.15 -7.186,-5.699c-1.74,0 -3.541,1.328 -5.402,3.983c-0.702,1.525 -1.282,3.784 -1.74,6.775c-0.457,2.99 -1.205,4.943 -2.243,5.859c-1.892,0.946 -2.159,3.578 -0.801,7.896c1.358,4.319 1.625,7.241 0.801,8.766c-0.366,1.526 -1.716,2.465 -4.051,2.816c-2.334,0.351 -4.021,-0.588 -5.058,-2.816Z" style="fill-rule:nonzero;"/><path d="M150.227,68.563c-1.861,-0.916 -3.235,-2.121 -4.12,-3.616c-0.885,-1.496 -1.617,-3.022 -2.197,-4.578c-0.458,-1.617 -0.618,-3.151 -0.48,-4.601c0.137,-1.449 0.618,-3.349 1.442,-5.699c0.457,-1.983 1.51,-6.149 3.158,-12.497c1.648,-6.347 4.883,-11.398 9.705,-15.152c1.037,-0.366 1.838,-0.618 2.403,-0.755c0.565,-0.137 1.488,-0.206 2.769,-0.206c1.526,0.366 2.839,0.45 3.937,0.252c1.099,-0.198 2.365,-0.588 3.8,-1.167c1.648,-0.092 3.364,-0.55 5.149,-1.374c1.786,-0.824 3.746,-1.541 5.883,-2.151c3.021,-0.702 5.966,-1.084 8.835,-1.145c2.868,-0.061 6.012,0.321 9.429,1.145c2.106,0.61 4.7,2.517 7.782,5.722c3.083,3.204 4.868,6.149 5.356,8.835c0.672,1.526 1.183,3.158 1.534,4.898c0.351,1.739 0.297,3.296 -0.16,4.669c0.244,2.228 -0.214,4.654 -1.374,7.278c0.092,1.557 -0.48,3.289 -1.716,5.196c-1.236,1.907 -2.785,3.38 -4.647,4.417c-0.702,1.069 -1.594,1.702 -2.678,1.9c-1.083,0.199 -2.677,0.588 -4.783,1.167c-1.434,0.367 -2.846,0.679 -4.234,0.939c-1.389,0.259 -3.426,0.328 -6.112,0.206c0.092,0.366 -0.686,0.519 -2.334,0.458c-1.648,-0.061 -3.281,0.03 -4.898,0.274c-1.435,0.702 -2.77,0.984 -4.006,0.847c-1.236,-0.137 -2.952,0.206 -5.15,1.03c-1.068,0.824 -2.006,1.45 -2.815,1.877c-0.809,0.427 -2.144,0.809 -4.005,1.144c-0.824,0.824 -1.816,1.267 -2.976,1.328c-1.159,0.061 -2.426,0.091 -3.799,0.091c-0.733,0.245 -2.068,0.481 -4.006,0.71c-1.937,0.229 -3.501,-0.252 -4.692,-1.442Zm9.156,-9.842c3.051,1.129 6.485,0.9 10.299,-0.687c3.418,-1.586 6.394,-2.288 8.927,-2.105c1.739,0.244 3.158,0.175 4.257,-0.206c1.099,-0.382 2.411,-0.939 3.937,-1.671c1.648,-0.58 3.135,-0.969 4.463,-1.167c1.327,-0.199 2.815,-0.115 4.463,0.251c3.754,-0.457 6.668,-1.93 8.743,-4.417c2.076,-2.487 3.067,-5.089 2.976,-7.805c0.091,-0.824 0.099,-1.732 0.023,-2.724c-0.077,-0.991 -0.634,-1.96 -1.671,-2.906c-1.557,-2.778 -3.197,-5.394 -4.921,-7.851c-1.724,-2.457 -4.692,-3.273 -8.904,-2.449c-1.648,0.122 -2.815,0.313 -3.501,0.572c-0.687,0.259 -2.022,0.618 -4.006,1.076c-1.556,0.61 -2.945,0.938 -4.166,0.984c-1.22,0.046 -2.639,0.191 -4.257,0.435c-2.105,0.366 -3.807,0.458 -5.104,0.275c-1.297,-0.184 -3.12,-0.046 -5.47,0.412c-1.526,0.244 -2.495,0.839 -2.907,1.785c-0.412,0.946 -1.076,1.755 -1.991,2.426c-0.946,1.892 -1.953,3.433 -3.021,4.623c-1.069,1.191 -2.015,2.549 -2.839,4.074c-1.312,2.106 -2.006,4.113 -2.082,6.02c-0.077,1.907 -0.161,3.731 -0.252,5.47c0.213,1.282 1.022,2.571 2.426,3.868c1.404,1.297 2.93,1.87 4.578,1.717Z" style="fill-rule:nonzero;"/><path d="M296.254,85.042c-0.488,-0.03 -0.763,-1.647 -0.824,-4.852c-0.061,-3.204 0.023,-6.927 0.252,-11.169c0.229,-4.242 0.58,-8.492 1.053,-12.749c0.473,-4.257 1.014,-7.484 1.625,-9.682c0.549,-2.197 1.327,-5.554 2.334,-10.07c1.007,-4.517 2.564,-7.248 4.669,-8.194c2.808,-0.336 5.341,0.343 7.599,2.037c2.259,1.693 4.105,3.349 5.539,4.966c1.16,0.489 2.854,2.076 5.081,4.761c2.228,2.686 4.555,5.562 6.981,8.629c2.426,3.067 4.715,5.89 6.867,8.469c2.151,2.578 3.731,3.974 4.738,4.188c1.861,0.458 3.822,0.259 5.882,-0.595c2.06,-0.854 3.151,-3.86 3.273,-9.018c0.275,-1.404 0.999,-3.471 2.174,-6.203c1.175,-2.731 2.426,-5.584 3.754,-8.56c1.327,-2.975 2.525,-5.791 3.593,-8.446c1.069,-2.655 1.633,-4.608 1.694,-5.859c0.244,-1.739 1.228,-3.792 2.953,-6.157c1.724,-2.365 2.54,-4.616 2.449,-6.752c-0.458,-1.373 -0.458,-3.044 0,-5.012c0.458,-1.969 1.159,-3.502 2.105,-4.601c1.74,-0.336 3.296,-0.183 4.67,0.458c1.373,0.641 2.243,1.831 2.609,3.57c1.282,1.282 0.931,4.128 -1.053,8.538c-1.984,4.409 -3.433,8.43 -4.349,12.062c-1.19,3.296 -2.845,7.416 -4.966,12.359c-2.121,4.944 -4.296,9.812 -6.524,14.603c-0.701,1.068 -1.266,3.098 -1.693,6.088c-0.428,2.991 -0.862,6.073 -1.305,9.247c-0.442,3.174 -0.961,6.012 -1.556,8.515c-0.595,2.502 -1.412,3.768 -2.449,3.799c-2.015,0.824 -4.906,-0.053 -8.675,-2.632c-3.769,-2.579 -7.652,-5.631 -11.65,-9.155c-3.998,-3.525 -7.721,-6.913 -11.17,-10.163c-3.448,-3.25 -5.844,-5.15 -7.186,-5.699c-1.74,0 -3.54,1.328 -5.402,3.983c-0.702,1.525 -1.282,3.784 -1.74,6.775c-0.457,2.99 -1.205,4.943 -2.243,5.859c-1.892,0.946 -2.159,3.578 -0.801,7.896c1.358,4.319 1.625,7.241 0.801,8.766c-0.366,1.526 -1.716,2.465 -4.051,2.816c-2.334,0.351 -4.02,-0.588 -5.058,-2.816Z" style="fill-rule:nonzero;"/><path d="M398.289,72.866c-1.586,-1.984 -2.136,-4.791 -1.647,-8.423c0.579,-2.106 1.113,-4.585 1.602,-7.439c0.488,-2.853 1.205,-5.287 2.151,-7.301c-0.244,-1.282 -0.404,-2.388 -0.48,-3.319c-0.077,-0.93 -0.237,-2.174 -0.481,-3.73c0.458,-1.74 1.305,-3.09 2.54,-4.052c1.236,-0.961 2.038,-2.266 2.404,-3.914c0.702,-2.471 2.006,-6.301 3.914,-11.489c1.907,-5.188 3.578,-8.072 5.012,-8.652c1.831,-0.58 3.502,-0.931 5.013,-1.053c1.51,-0.122 3.029,-0.244 4.554,-0.366l13.367,-0.458l5.402,0.916c2.35,0.976 3.524,2.151 3.524,3.524c-0.305,1.709 -1.556,2.564 -3.753,2.564l-6.317,1.19l-9.842,1.648c-2.899,0 -4.7,0.931 -5.402,2.792c-2.045,2.991 -3.067,6.272 -3.067,9.842c0.824,1.068 2.083,1.557 3.777,1.465c1.693,-0.091 3.486,-0.259 5.378,-0.503c3.388,-0.58 6.791,-1.183 10.209,-1.809c3.418,-0.625 6.897,-0.892 10.437,-0.801c1.373,0 2.647,0.061 3.822,0.183c1.175,0.122 2.006,0.534 2.495,1.236c0.549,1.191 0.595,2.213 0.137,3.067c-0.458,0.855 -0.977,1.389 -1.556,1.603c-1.892,1.068 -3.846,1.312 -5.86,0.732c-3.753,0.458 -6.82,0.847 -9.201,1.167c-2.38,0.321 -4.623,0.71 -6.729,1.168c-2.35,0.366 -4.288,0.801 -5.814,1.304c-1.525,0.504 -3.57,0.923 -6.134,1.259c-1.068,0 -1.869,0.229 -2.403,0.687c-0.534,0.457 -1.137,0.854 -1.808,1.19c-1.068,1.312 -1.717,2.449 -1.945,3.41c-0.229,0.962 -0.527,1.778 -0.893,2.449c-0.244,1.312 -0.542,2.587 -0.893,3.823c-0.351,1.236 -0.526,2.54 -0.526,3.913c1.282,2.015 2.693,2.892 4.234,2.633c1.541,-0.26 3.258,-0.512 5.15,-0.756l9.155,-1.877c2.106,-0.457 4.257,-0.923 6.455,-1.396c2.197,-0.473 4.425,-0.938 6.683,-1.396c1.373,-0.366 2.419,-0.465 3.136,-0.297c0.717,0.167 1.304,0.419 1.762,0.755c1.251,0.946 1.572,2.273 0.961,3.982c-0.946,1.313 -2.273,2.167 -3.982,2.564c-2.014,1.19 -3.906,1.999 -5.676,2.426c-1.77,0.427 -3.479,0.87 -5.127,1.328c-2.594,0.946 -4.67,1.64 -6.226,2.082c-1.556,0.443 -3.387,0.771 -5.493,0.985l-6.088,0.915l-5.86,0.961c-1.892,0.458 -3.631,0.687 -5.218,0.687c-1.587,0 -3.205,-0.473 -4.853,-1.419Z" style="fill-rule:nonzero;"/><path d="M515.157,84.402c-0.611,-0.214 -1.183,-0.374 -1.717,-0.481c-0.534,-0.107 -1.045,-0.572 -1.534,-1.396c-0.549,0 -0.984,-0.427 -1.304,-1.282c-0.321,-0.854 -0.328,-1.755 -0.023,-2.701c-0.549,-1.739 -0.595,-3.563 -0.137,-5.47c0.457,-1.907 0.503,-3.746 0.137,-5.516c-0.183,-0.916 -0.351,-1.846 -0.504,-2.792c-0.152,-0.946 -0.335,-1.893 -0.549,-2.839c-0.183,-0.671 -0.58,-1.998 -1.19,-3.982c-2.106,-4.547 -4.807,-7.599 -8.103,-9.155c-0.824,-1.221 -1.77,-1.45 -2.838,-0.687c-0.885,0.153 -1.861,1.083 -2.929,2.792c-1.557,1.77 -2.915,4.029 -4.074,6.775c-1.16,2.747 -1.77,6.043 -1.832,9.888c-0.823,3.052 -0.907,5.798 -0.251,8.24c0.656,2.441 0.389,4.532 -0.801,6.271c-1.221,1.892 -2.549,1.968 -3.983,0.229c-0.732,-0.549 -1.213,-1.389 -1.442,-2.518c-0.229,-1.129 -0.343,-2.167 -0.343,-3.113c-0.55,-2.655 -0.702,-5.676 -0.458,-9.063c0.244,-3.388 0,-5.905 -0.732,-7.553c-0.58,-1.648 -1.099,-3.464 -1.557,-5.448c-0.458,-1.983 -0.717,-3.921 -0.778,-5.813c0.061,-1.74 -0.145,-3.418 -0.618,-5.036c-0.473,-1.617 -0.816,-3.372 -1.03,-5.264c-0.458,-1.404 -0.717,-2.945 -0.778,-4.624c-0.061,-1.678 -0.046,-3.341 0.046,-4.989c-0.153,-0.824 -0.313,-1.694 -0.481,-2.609c-0.168,-0.916 -0.359,-1.847 -0.572,-2.793c-0.672,-1.495 -1.152,-3.433 -1.442,-5.813c-0.29,-2.381 -0.206,-4.578 0.252,-6.592c0.671,-0.916 1.464,-1.358 2.38,-1.328c0.916,0.031 1.602,0.626 2.06,1.786c1.038,0.366 1.518,2.067 1.442,5.104c-0.076,3.036 -0.16,5.47 -0.252,7.301c0.183,3.357 0.931,6.638 2.243,9.842c0.977,4.242 1.312,8.392 1.007,12.451c0.641,1.892 1.213,3.708 1.717,5.448c0.503,1.739 1.213,2.655 2.128,2.746c0.946,-1.282 1.732,-3.357 2.358,-6.225c0.626,-2.869 1.427,-5.005 2.403,-6.409c0.733,-1.618 1.862,-2.869 3.388,-3.754c1.617,-0.976 3.189,-0.976 4.715,0c2.197,0.58 4.119,1.74 5.767,3.479c1.648,1.74 3.174,3.54 4.578,5.402c1.465,1.77 2.213,4.226 2.243,7.37c0.031,3.143 0.412,5.066 1.145,5.768c1.312,0 2.143,-1.641 2.494,-4.921c0.351,-3.281 0.71,-6.096 1.076,-8.446c0.366,-1.038 0.771,-2.472 1.213,-4.303c0.443,-1.831 0.771,-3.281 0.984,-4.349c0.885,-1.983 1.587,-4.593 2.106,-7.828c0.519,-3.234 1.053,-7.187 1.602,-11.856c0.366,-2.685 0.9,-5.844 1.602,-9.475c0.702,-3.632 1.694,-5.631 2.976,-5.997c1.373,0.58 2.312,1.8 2.815,3.662c0.504,1.862 0.755,3.845 0.755,5.951c0.641,0.824 0.458,2.434 -0.549,4.829c-1.007,2.396 -2.014,4.525 -3.021,6.386c-0.977,3.204 -1.969,7.08 -2.976,11.627c-1.007,4.547 -1.739,9.034 -2.197,13.459c-0.458,4.821 -0.931,9.796 -1.419,14.923c-0.488,5.127 -1.099,10.162 -1.831,15.106c-0.153,1.19 -0.542,2.418 -1.167,3.685c-0.626,1.266 -1.366,1.9 -2.22,1.9Z" style="fill-rule:nonzero;"/><path d="M2.783,224.702c-0.396,-0.275 -0.854,-0.428 -1.373,-0.458c-0.519,-0.031 -0.87,-0.565 -1.053,-1.602c-0.335,-0.306 -0.435,-2.182 -0.297,-5.631c0.137,-3.448 0.419,-7.568 0.847,-12.36c0.427,-4.791 0.961,-9.826 1.602,-15.106c0.641,-5.279 1.297,-9.918 1.968,-13.916c-0.763,-0.915 -1.144,-1.892 -1.144,-2.929c0,-1.038 0,-2.32 0,-3.846c0.274,-1.587 0.801,-3.074 1.579,-4.463c0.778,-1.388 1.503,-2.83 2.174,-4.326c1.679,-3.662 3.434,-8.27 5.265,-13.824c1.831,-5.554 3.448,-8.331 4.852,-8.331c0.732,-0.55 1.587,-0.657 2.564,-0.321c0.976,0.336 1.556,0.641 1.739,0.916c4.822,-1.526 9.644,-2.213 14.465,-2.06c1.77,-0.458 3.525,-0.588 5.265,-0.389c1.739,0.198 3.601,0.572 5.584,1.121c1.709,-0.183 2.472,0.321 2.289,1.511c0.153,0.763 -0.412,1.51 -1.694,2.243c-1.525,0.458 -3.021,0.679 -4.486,0.664c-1.464,-0.016 -3.036,0.068 -4.715,0.251c-1.617,-0.091 -2.998,-0.023 -4.142,0.206c-1.145,0.229 -2.266,0.481 -3.365,0.756c-2.411,0.213 -4.349,0.839 -5.814,1.876c-1.525,0.519 -2.395,1.648 -2.609,3.388l-5.081,10.483l-1.099,5.035c2.686,1.16 5.745,1.747 9.179,1.762c3.433,0.016 7.118,-0.251 11.055,-0.801c1.861,-0.091 3.723,-0.442 5.584,-1.052c1.862,-0.611 4.059,-0.824 6.592,-0.641c1.373,0.427 2.197,1.236 2.472,2.426c0.275,0.763 0.053,1.358 -0.664,1.785c-0.717,0.427 -1.442,0.641 -2.174,0.641l-3.754,0.961c-2.441,0.672 -4.463,1.16 -6.065,1.465c-1.602,0.305 -3.761,0.687 -6.478,1.145c-1.8,0.488 -3.471,0.74 -5.012,0.755c-1.541,0.015 -2.815,0.206 -3.822,0.572c0,0 -1.198,0.259 -3.594,0.778c-2.395,0.519 -4.57,1.389 -6.523,2.609c-1.19,0.275 -2.113,2.816 -2.769,7.622c-0.657,4.807 -1.236,10.086 -1.74,15.839c-0.503,5.752 -0.992,11.093 -1.465,16.022c-0.473,4.928 -1.106,7.637 -1.899,8.125l-2.244,1.099Z" style="fill-rule:nonzero;"/><path d="M83.533,226.137c-1.007,0.244 -1.526,-1.068 -1.556,-3.937c-0.031,-2.868 0.137,-6.416 0.503,-10.643c0.366,-4.226 0.809,-8.667 1.328,-13.321c0.518,-4.654 0.854,-8.659 1.007,-12.016c-0.061,-1.251 0.221,-4.043 0.847,-8.377c0.625,-4.333 1.442,-8.881 2.449,-13.641c1.007,-4.761 2.136,-9.072 3.387,-12.932c1.251,-3.861 2.472,-5.959 3.662,-6.294c1.74,-0.275 3.128,0.228 4.166,1.51c1.037,1.282 2.075,1.77 3.113,1.465c1.678,-0.091 3.303,-0.61 4.875,-1.556c1.571,-0.946 3.395,-1.419 5.47,-1.419c2.411,0.549 6.607,0.839 12.589,0.869c5.981,0.031 10.162,0.733 12.542,2.106c1.129,1.068 1.374,2.136 0.733,3.204c-0.489,0.763 -0.847,1.389 -1.076,1.877c-0.229,0.489 -0.618,1.236 -1.167,2.243c-0.763,1.892 -1.694,3.586 -2.793,5.081c-1.098,1.496 -2.67,2.747 -4.715,3.754c-0.854,0.458 -1.709,1.015 -2.563,1.671c-0.855,0.656 -1.877,1.213 -3.067,1.671c-0.58,0.305 -1.198,0.633 -1.854,0.984c-0.656,0.351 -1.35,0.71 -2.083,1.076c-0.854,0.488 -1.648,0.976 -2.38,1.465c-0.733,0.488 -1.374,1.19 -1.923,2.105c-1.007,1.007 -1.266,2.014 -0.778,3.022c3.479,1.8 7.721,2.952 12.726,3.456c5.005,0.503 10.147,1.35 15.426,2.54c2.045,0.366 3.54,1.297 4.487,2.793c-0.428,1.77 -1.496,3.143 -3.205,4.119c-1.983,0.763 -4.341,1.191 -7.072,1.282c-2.732,0.092 -5.303,-0.335 -7.714,-1.282c-2.655,-0.183 -6.088,-0.984 -10.299,-2.403c-4.212,-1.419 -8.087,-2.922 -11.627,-4.509c-1.435,-0.549 -3.09,-1.014 -4.967,-1.396c-1.877,-0.381 -3.609,-0.481 -5.196,-0.297c-1.495,0.457 -2.548,1.266 -3.158,2.426c-0.611,1.159 -1.053,2.288 -1.328,3.387c-0.763,2.747 -1.16,7.652 -1.19,14.717c-0.031,7.065 -0.687,13.97 -1.968,20.714c-0.672,1.709 -1.366,2.96 -2.083,3.754c-0.717,0.793 -1.9,1.037 -3.548,0.732Zm16.113,-54.565c2.106,1.648 4.547,1.648 7.325,0c2.99,-1.221 5.416,-3.22 7.278,-5.997c0.641,-0.824 1.457,-1.16 2.449,-1.007c0.992,0.152 1.686,0 2.083,-0.458c1.77,-0.549 3.883,-2.09 6.34,-4.623c2.457,-2.533 3.273,-4.38 2.449,-5.539c-0.549,-0.733 -1.831,-1.374 -3.845,-1.923c-2.014,-0.549 -4.044,-0.961 -6.089,-1.236c-2.044,0 -3.982,0.244 -5.813,0.733c-3.388,0.091 -5.921,1.548 -7.599,4.371c-1.679,2.823 -3.204,6.05 -4.578,9.682c-0.763,1.038 -1.144,2.159 -1.144,3.365c0,1.205 0.381,2.082 1.144,2.632Z" style="fill-rule:nonzero;"/><path d="M189.692,194.235c-0.549,-1.098 -0.778,-2.518 -0.687,-4.257c0.092,-1.74 0.321,-3.326 0.687,-4.761c2.258,-6.531 4.105,-13.023 5.539,-19.478c1.434,-6.454 2.533,-12.641 3.296,-18.562c0.275,-1.678 0.595,-2.907 0.961,-3.685c0.366,-0.778 0.977,-1.549 1.831,-2.312c1.679,0.183 2.877,0.458 3.594,0.824c0.717,0.367 1.03,1.145 0.938,2.335c0.366,2.197 0.267,4.936 -0.297,8.217c-0.565,3.28 -1.168,6.615 -1.809,10.002c-0.457,1.312 -0.885,2.922 -1.281,4.829c-0.397,1.908 -0.779,3.975 -1.145,6.203c-0.763,4.425 -1.259,8.919 -1.487,13.481c-0.229,4.563 -0.664,7.454 -1.305,8.675c-1.038,1.129 -2.586,1.488 -4.646,1.076c-2.06,-0.412 -3.457,-1.275 -4.189,-2.587Z" style="fill-rule:nonzero;"/><path d="M247.508,193.682c-1.282,-1.648 -1.709,-3.906 -1.282,-6.775c0.458,-1.679 0.877,-3.662 1.259,-5.951c0.381,-2.289 0.953,-4.242 1.716,-5.859c-0.183,-1.007 -0.305,-1.892 -0.366,-2.655c-0.061,-0.763 -0.183,-1.755 -0.366,-2.976c0.366,-1.373 1.045,-2.449 2.037,-3.227c0.992,-0.778 1.625,-1.824 1.9,-3.136c0.549,-1.953 1.587,-5.012 3.112,-9.178c1.526,-4.166 2.854,-6.477 3.983,-6.935c1.495,-0.458 2.846,-0.74 4.051,-0.847c1.206,-0.107 2.419,-0.206 3.639,-0.297l10.712,-0.367l4.303,0.733c1.892,0.793 2.838,1.739 2.838,2.838c-0.305,1.373 -1.312,2.06 -3.021,2.06l-5.081,0.915l-7.874,1.328c-2.258,0 -3.692,0.748 -4.303,2.243c-1.617,2.319 -2.426,4.944 -2.426,7.873c0.641,0.855 1.64,1.244 2.999,1.168c1.358,-0.077 2.8,-0.206 4.325,-0.389c2.686,-0.458 5.394,-0.946 8.126,-1.465c2.731,-0.519 5.516,-0.733 8.354,-0.641c1.099,0 2.121,0.053 3.067,0.16c0.946,0.107 1.617,0.435 2.014,0.984c0.458,0.946 0.496,1.763 0.114,2.449c-0.381,0.687 -0.801,1.122 -1.258,1.305c-1.526,0.824 -3.083,1.007 -4.67,0.549c-3.021,0.397 -5.485,0.717 -7.392,0.962c-1.908,0.244 -3.701,0.549 -5.379,0.915c-1.892,0.305 -3.449,0.656 -4.669,1.053c-1.221,0.397 -2.854,0.732 -4.898,1.007c-0.855,0 -1.488,0.183 -1.9,0.549c-0.412,0.367 -0.893,0.687 -1.442,0.962c-0.855,1.037 -1.381,1.938 -1.579,2.7c-0.199,0.763 -0.435,1.42 -0.71,1.969c-0.183,1.037 -0.412,2.052 -0.687,3.044c-0.274,0.992 -0.412,2.052 -0.412,3.181c1.008,1.587 2.129,2.282 3.365,2.083c1.236,-0.198 2.617,-0.404 4.143,-0.618l7.278,-1.465c1.679,-0.366 3.403,-0.74 5.173,-1.121c1.77,-0.382 3.555,-0.771 5.356,-1.167c1.709,-0.397 3.021,-0.26 3.937,0.412c1.037,0.732 1.281,1.785 0.732,3.158c-0.732,1.038 -1.785,1.724 -3.159,2.06c-1.617,0.946 -3.135,1.595 -4.554,1.946c-1.419,0.351 -2.785,0.709 -4.097,1.075c-2.076,0.763 -3.739,1.313 -4.99,1.648c-1.251,0.336 -2.716,0.595 -4.394,0.779l-4.853,0.778l-4.715,0.732c-3.265,0.824 -5.951,0.641 -8.056,-0.549Z" style="fill-rule:nonzero;"/><path d="M325.236,193.161c-0.397,-0.031 -0.618,-1.328 -0.664,-3.891c-0.046,-2.564 0.023,-5.539 0.206,-8.927c0.183,-3.387 0.466,-6.79 0.847,-10.208c0.381,-3.418 0.816,-5.997 1.305,-7.736c0.457,-1.77 1.083,-4.463 1.876,-8.08c0.794,-3.616 2.045,-5.79 3.754,-6.523c2.228,-0.275 4.25,0.267 6.065,1.625c1.816,1.358 3.289,2.693 4.418,4.006c0.915,0.366 2.273,1.625 4.074,3.776c1.801,2.152 3.662,4.456 5.585,6.912c1.922,2.457 3.746,4.708 5.47,6.752c1.724,2.045 2.998,3.159 3.822,3.342c1.465,0.397 3.022,0.252 4.67,-0.435c1.647,-0.686 2.517,-3.105 2.609,-7.255c0.213,-1.099 0.801,-2.747 1.762,-4.944c0.961,-2.197 1.969,-4.486 3.021,-6.867c1.053,-2.38 2.007,-4.631 2.861,-6.752c0.855,-2.121 1.313,-3.685 1.374,-4.692c0.183,-1.373 0.969,-3.006 2.357,-4.898c1.389,-1.892 2.037,-3.692 1.946,-5.401c-0.367,-1.099 -0.367,-2.442 0,-4.029c0.366,-1.587 0.93,-2.807 1.693,-3.662c3.327,-0.641 5.265,0.427 5.814,3.205c1.007,1.037 0.725,3.318 -0.847,6.843c-1.572,3.525 -2.724,6.737 -3.456,9.636c-0.946,2.655 -2.274,5.951 -3.983,9.888c-1.709,3.936 -3.448,7.827 -5.218,11.673c-0.58,0.854 -1.038,2.479 -1.373,4.875c-0.336,2.395 -0.679,4.867 -1.03,7.416c-0.351,2.548 -0.771,4.821 -1.259,6.82c-0.488,1.999 -1.145,3.014 -1.969,3.044c-1.617,0.672 -3.929,-0.03 -6.935,-2.105c-3.006,-2.075 -6.111,-4.525 -9.315,-7.347c-3.204,-2.823 -6.18,-5.539 -8.927,-8.149c-2.746,-2.609 -4.653,-4.127 -5.722,-4.554c-1.403,0 -2.853,1.068 -4.348,3.204c-0.55,1.221 -1.007,3.029 -1.374,5.425c-0.366,2.395 -0.961,3.959 -1.785,4.692c-1.526,0.763 -1.747,2.876 -0.664,6.34c1.084,3.463 1.305,5.79 0.664,6.981c-0.305,1.22 -1.396,1.976 -3.273,2.265c-1.877,0.29 -3.227,-0.465 -4.051,-2.265Z" style="fill-rule:nonzero;"/><path d="M415.705,194.922c-0.275,-1.099 -0.244,-2.076 0.091,-2.93c0.336,-0.854 0.565,-1.556 0.687,-2.106l1.831,-5.63c1.129,-2.259 2.586,-6.294 4.372,-12.108c1.785,-5.814 2.586,-10.094 2.403,-12.84c0.183,-3.479 0.046,-7.134 -0.412,-10.964c-0.458,-3.83 0.122,-5.928 1.739,-6.294c2.686,-0.458 4.647,0.168 5.883,1.877c1.236,1.709 2.327,2.334 3.273,1.877c3.753,0.457 7.522,0.824 11.306,1.098c3.785,0.275 7.645,0.778 11.582,1.511c2.716,0.488 4.761,1.228 6.134,2.22c1.373,0.992 2.96,2.129 4.761,3.41c0.915,1.038 1.739,1.923 2.471,2.655c0.733,0.733 1.343,1.603 1.832,2.61c1.22,2.136 1.907,3.891 2.059,5.264c0.824,1.862 1.084,3.616 0.779,5.264c-0.306,1.648 -0.687,3.266 -1.145,4.853c-0.763,1.892 -1.381,3.105 -1.854,3.639c-0.473,0.534 -1.167,1.259 -2.083,2.174c-1.037,1.129 -1.869,1.869 -2.494,2.22c-0.626,0.351 -1.488,0.801 -2.587,1.351c-1.617,0.824 -2.876,1.48 -3.776,1.968c-0.901,0.488 -1.946,0.824 -3.136,1.007c-1.16,0.58 -4.227,1.404 -9.201,2.472c-4.974,1.068 -7.919,1.556 -8.835,1.465c-3.204,0.763 -5.928,1.289 -8.171,1.579c-2.243,0.29 -4.57,0.71 -6.981,1.259c-1.556,-0.458 -2.746,-0.397 -3.57,0.183l-1.328,0.733c-0.366,0.274 -0.755,0.801 -1.167,1.579c-0.412,0.778 -1.03,0.877 -1.854,0.297c-0.824,0.367 -1.557,0.321 -2.197,-0.137c-0.641,-0.458 -0.779,-0.976 -0.412,-1.556Zm15.564,-9.201l8.651,-1.648l8.789,-1.511l7.325,-1.511c1.19,-0.183 2.319,-0.381 3.387,-0.595c1.068,-0.213 2.304,-0.702 3.708,-1.464c1.862,-0.123 4.12,-1.755 6.775,-4.899c1.617,-2.685 1.922,-5.615 0.915,-8.789c-1.037,-2.716 -2.784,-4.875 -5.241,-6.477c-2.457,-1.602 -5.135,-2.449 -8.034,-2.541l-23.666,-1.464l0,1.876c0.091,1.313 -0.351,3.769 -1.328,7.37c-0.976,3.601 -1.648,6.134 -2.014,7.599c-1.037,3.205 -1.9,5.905 -2.586,8.103c-0.687,2.197 -1.763,4.562 -3.227,7.095l6.546,-1.144Z" style="fill-rule:nonzero;"/><path d="M518.701,196.722c-0.762,0.092 -1.571,-0.023 -2.426,-0.343c-0.854,-0.321 -1.419,-0.954 -1.693,-1.9c0.183,-1.007 0.946,-2.357 2.288,-4.051c1.343,-1.694 2.579,-2.785 3.708,-3.273c1.557,-1.129 3.495,-1.129 5.814,0c1.495,0.091 3.097,-0.198 4.806,-0.87c1.709,-0.671 3.235,-1.373 4.578,-2.106c2.625,-0.976 4.379,-1.983 5.264,-3.021c1.465,-0.641 2.571,-1.808 3.319,-3.502c0.748,-1.693 1.076,-2.968 0.984,-3.822c-0.671,-0.732 -3.418,-1.053 -8.239,-0.961c-4.822,0.091 -8.393,0.412 -10.712,0.961c-0.855,0 -1.793,0.053 -2.815,0.16c-1.023,0.107 -2.465,0.054 -4.326,-0.16c-0.946,-0.092 -3.006,-0.412 -6.18,-0.961c-3.174,-0.55 -4.669,-1.725 -4.486,-3.525c-0.275,-2.045 1.236,-4.448 4.532,-7.21c3.296,-2.762 6.225,-5.226 8.789,-7.393c1.373,-1.678 3.143,-2.975 5.31,-3.891c2.167,-0.915 4.333,-2.304 6.5,-4.165c2.411,-1.221 5.097,-2.419 8.057,-3.594c2.96,-1.175 5.707,-1.671 8.24,-1.488c0.915,0.184 1.434,0.603 1.556,1.259c0.122,0.656 0.412,1.488 0.87,2.495c0.091,1.129 -0.992,1.77 -3.25,1.923c-2.259,0.152 -3.983,0.824 -5.173,2.014c-2.075,1.404 -4.463,2.754 -7.164,4.051c-2.701,1.297 -5.684,3.075 -8.949,5.333c-0.855,0.092 -1.763,0.664 -2.724,1.717c-0.961,1.052 -1.625,1.854 -1.991,2.403c-0.733,0.458 -0.908,1.175 -0.527,2.151c0.382,0.977 1.183,1.511 2.403,1.603c5.066,-0.55 9.827,-0.672 14.283,-0.367c4.455,0.306 8.88,0.916 13.275,1.831c3.357,0.885 5.371,2.274 6.042,4.166c0.641,1.129 0.519,2.19 -0.366,3.182c-0.885,0.991 -1.831,1.991 -2.838,2.998c-1.068,1.434 -2.625,2.746 -4.669,3.937c-0.855,1.037 -2.22,1.808 -4.097,2.311c-1.877,0.504 -3.273,1.351 -4.189,2.541c-4.242,3.876 -10.055,6.821 -17.441,8.835c-2.227,1.007 -4.348,1.251 -6.363,0.732Z" style="fill-rule:nonzero;"/><circle cx="67.627" cy="174.358" r="6" style="fill:#e91e23;"/><circle cx="255.877" cy="49.858" r="6" style="fill:#e91e23;"/><circle cx="171.127" cy="174.358" r="6" style="fill:#02b2e7;"/><circle cx="227.377" cy="174.358" r="6" style="fill:#fabc16;"/><circle cx="307.627" cy="174.358" r="6" style="fill:#e91e23;"/><circle cx="399.877" cy="174.358" r="6" style="fill:#fabc16;"/><circle cx="489.877" cy="174.358" r="6" style="fill:#02b2e7;"/></g></svg>